<?xml version="1.0"?>
<svg xmlns="http://www.w3.org/2000/svg" viewBox="0 0 16 16">
<defs>
    <style>.a{fill:#666;}.b{fill:#fff;}</style>
</defs>
<title>Person</title>
<circle class="a" cx="8" cy="8" r="8"/>
<path class="b" d="M9.594,8.864a4.442,4.442,0,0,1,1.278.686,4.522,4.522,0,0,1,.969,1.018,4.659,4.659,0,0,1,.612,1.266,4.817,4.817,0,0,1,.213,1.433H12a4.087,4.087,0,0,0-.3-1.586A3.833,3.833,0,0,0,9.586,9.57a4.234,4.234,0,0,0-2.659-.164,4.019,4.019,0,0,0-.961.4A3.915,3.915,0,0,0,4.54,11.231a4.019,4.019,0,0,0-.4.961A4.064,4.064,0,0,0,4,13.266H3.333a4.693,4.693,0,0,1,.219-1.435,4.633,4.633,0,0,1,.62-1.258,4.577,4.577,0,0,1,.971-1.011A4.713,4.713,0,0,1,6.417,8.87a3.3,3.3,0,0,1-.729-.531,3.345,3.345,0,0,1-.55-.7,3.432,3.432,0,0,1-.349-.818,3.35,3.35,0,0,1,.138-2.192A3.339,3.339,0,0,1,6.7,2.859a3.369,3.369,0,0,1,2.6,0,3.334,3.334,0,0,1,1.773,1.773,3.349,3.349,0,0,1,.138,2.19,3.391,3.391,0,0,1-.349.813,3.46,3.46,0,0,1-.547.7A3.217,3.217,0,0,1,9.594,8.864ZM5.333,5.933a2.567,2.567,0,0,0,.211,1.036A2.7,2.7,0,0,0,6.964,8.388a2.651,2.651,0,0,0,2.073,0,2.694,2.694,0,0,0,1.419-1.419,2.653,2.653,0,0,0,0-2.073A2.7,2.7,0,0,0,9.037,3.477a2.651,2.651,0,0,0-2.073,0A2.708,2.708,0,0,0,5.544,4.9,2.571,2.571,0,0,0,5.333,5.933Z"/>
</svg>